<!DOCTYPE svg PUBLIC "-//W3C//DTD SVG 1.1//EN" "http://www.w3.org/Graphics/SVG/1.1/DTD/svg11.dtd">
<!-- Uploaded to: SVG Repo, www.svgrepo.com, Transformed by: SVG Repo Mixer Tools -->
<svg fill="#2196f3" height="100px" width="100px" version="1.1" id="Capa_1" xmlns="http://www.w3.org/2000/svg" xmlns:xlink="http://www.w3.org/1999/xlink" viewBox="0 0 313.281 313.281" xml:space="preserve">
<g id="SVGRepo_bgCarrier" stroke-width="0"/>
<g id="SVGRepo_tracerCarrier" stroke-linecap="round" stroke-linejoin="round"/>
<g id="SVGRepo_iconCarrier"> <g id="XMLID_509_"> <path id="XMLID_510_" d="M85.173,52.616c0.312,0,0.626-0.026,0.932-0.078l17.842-2.976l8.035,15.972 c0.958,1.902,2.875,3.083,5.003,3.083c2.763,0,5.099-1.977,5.554-4.703l2.995-17.954l17.956-2.996 c2.408-0.403,4.271-2.295,4.637-4.708c0.365-2.405-0.849-4.755-3.021-5.849l-15.971-8.034l2.977-17.84 c0.272-1.632-0.182-3.289-1.245-4.545C129.796,0.725,128.234,0,126.577,0c-1.498,0-2.908,0.586-3.973,1.651l-12.932,12.932 L93.641,6.518c-0.782-0.394-1.655-0.602-2.526-0.602c-1.934,0-3.769,1.027-4.788,2.681c-1.03,1.668-1.119,3.711-0.237,5.469 L94.155,30.1L81.225,43.031c-1.615,1.615-2.095,4.019-1.223,6.124C80.872,51.257,82.903,52.616,85.173,52.616z"/> <path id="XMLID_511_" d="M105.52,255.996l-15.971-8.034l2.977-17.841c0.272-1.632-0.181-3.289-1.245-4.545 c-1.069-1.263-2.633-1.988-4.289-1.988c-1.497,0-2.907,0.586-3.972,1.651L70.087,238.17l-16.031-8.065 c-0.781-0.394-1.655-0.602-2.526-0.602c-1.935,0-3.771,1.028-4.791,2.684c-1.029,1.671-1.116,3.715-0.234,5.466l8.066,16.034 l-12.93,12.93c-1.616,1.614-2.098,4.018-1.226,6.124c0.988,2.39,3.517,3.815,6.105,3.385l17.841-2.976l8.034,15.97 c0.958,1.903,2.875,3.085,5.004,3.084c2.763,0,5.099-1.977,5.554-4.703l2.995-17.953l17.954-2.996 c2.409-0.402,4.273-2.295,4.639-4.709C108.905,259.438,107.691,257.087,105.52,255.996z"/> <path id="XMLID_512_" d="M290.415,299.139L177.737,186.46l49.774-7.883c5.99-0.949,10.653-5.611,11.602-11.602 c0.949-5.991-2.045-11.865-7.448-14.618l-55.917-28.491l9.817-61.984c0.641-4.048-0.503-8.139-3.138-11.224 c-2.676-3.133-6.569-4.93-10.683-4.93c-3.696,0-7.188,1.457-9.833,4.102l-44.376,44.375L61.619,65.714 c-1.976-1.007-4.173-1.539-6.354-1.539c-4.807,0-9.367,2.571-11.903,6.709c-2.545,4.153-2.737,9.237-0.514,13.602l28.491,55.916 l-44.376,44.376c-4.006,4.006-5.195,9.972-3.03,15.197c2.172,5.244,7.217,8.632,12.852,8.632c0.741,0,1.492-0.059,2.231-0.176 l61.983-9.817l28.49,55.915c2.396,4.704,7.151,7.625,12.411,7.624c6.921-0.001,12.729-4.953,13.81-11.775l7.884-49.775 l112.679,112.679L290.415,299.139z M138.866,228.877l-22.04-43.256c-2.396-4.7-7.16-7.62-12.435-7.62 c-0.729,0-1.463,0.058-2.185,0.172l-47.95,7.594l34.329-34.328c4.289-4.289,5.32-10.801,2.566-16.205l-22.04-43.255l43.258,22.041 c1.953,0.994,4.143,1.52,6.333,1.52c3.729,0,7.235-1.452,9.87-4.088l34.328-34.328l-7.595,47.953 c-0.946,5.987,2.046,11.86,7.448,14.615l43.257,22.04l-47.953,7.595c-5.987,0.95-10.648,5.611-11.599,11.601L138.866,228.877z"/> </g> </g>
</svg>